{
	"asset":{
		"generator":"Khronos glTF Blender I/O v4.5.47",
		"version":"2.0"
	},
	"scene":0,
	"scenes":[
		{
			"name":"Scene",
			"nodes":[
				0
			]
		}
	],
	"nodes":[
		{
			"mesh":0,
			"name":"CargoShip"
		}
	],
	"materials":[
		{
			"doubleSided":true,
			"name":"0.498039_0.498039_0.498039_0.000000_0.000000",
			"pbrMetallicRoughness":{
				"baseColorFactor":[
					0.49803921580314636,
					0.49803921580314636,
					0.49803921580314636,
					1
				],
				"metallicFactor":0
			}
		},
		{
			"doubleSided":true,
			"name":"blueThing.001",
			"pbrMetallicRoughness":{
				"baseColorFactor":[
					0.0009452921221964061,
					0,
					0.8003851175308228,
					1
				],
				"metallicFactor":0
			}
		},
		{
			"doubleSided":true,
			"name":"Black",
			"pbrMetallicRoughness":{
				"baseColorFactor":[
					0,
					0,
					0,
					1
				],
				"metallicFactor":0
			}
		},
		{
			"alphaMode":"BLEND",
			"doubleSided":true,
			"name":"clearish",
			"pbrMetallicRoughness":{
				"baseColorFactor":[
					0.800000011920929,
					0.800000011920929,
					0.800000011920929,
					0.25
				],
				"metallicFactor":0,
				"roughnessFactor":0.5
			}
		}
	],
	"meshes":[
		{
			"name":"mesh0_mesh",
			"primitives":[
				{
					"attributes":{
						"POSITION":0,
						"NORMAL":1,
						"TEXCOORD_0":2
					},
					"indices":3,
					"material":0
				},
				{
					"attributes":{
						"POSITION":4,
						"NORMAL":5,
						"TEXCOORD_0":6
					},
					"indices":7,
					"material":1
				},
				{
					"attributes":{
						"POSITION":8,
						"NORMAL":9,
						"TEXCOORD_0":10
					},
					"indices":11,
					"material":2
				},
				{
					"attributes":{
						"POSITION":12,
						"NORMAL":13,
						"TEXCOORD_0":14
					},
					"indices":15,
					"material":3
				}
			]
		}
	],
	"accessors":[
		{
			"bufferView":0,
			"componentType":5126,
			"count":8404,
			"max":[
				0.7080249786376953,
				1.4731999635696411,
				2.663825035095215
			],
			"min":[
				-0.7080249786376953,
				0,
				0
			],
			"type":"VEC3"
		},
		{
			"bufferView":1,
			"componentType":5126,
			"count":8404,
			"type":"VEC3"
		},
		{
			"bufferView":2,
			"componentType":5126,
			"count":8404,
			"type":"VEC2"
		},
		{
			"bufferView":3,
			"componentType":5123,
			"count":25737,
			"type":"SCALAR"
		},
		{
			"bufferView":4,
			"componentType":5126,
			"count":7114,
			"max":[
				0.7080249786376953,
				1.2192000150680542,
				2.663825035095215
			],
			"min":[
				-0.7080249786376953,
				0.20398740470409393,
				0
			],
			"type":"VEC3"
		},
		{
			"bufferView":5,
			"componentType":5126,
			"count":7114,
			"type":"VEC3"
		},
		{
			"bufferView":6,
			"componentType":5126,
			"count":7114,
			"type":"VEC2"
		},
		{
			"bufferView":7,
			"componentType":5123,
			"count":19260,
			"type":"SCALAR"
		},
		{
			"bufferView":8,
			"componentType":5126,
			"count":898,
			"max":[
				0.7080249786376953,
				1.4731999635696411,
				2.663825035095215
			],
			"min":[
				-0.7080249786376953,
				0,
				0
			],
			"type":"VEC3"
		},
		{
			"bufferView":9,
			"componentType":5126,
			"count":898,
			"type":"VEC3"
		},
		{
			"bufferView":10,
			"componentType":5126,
			"count":898,
			"type":"VEC2"
		},
		{
			"bufferView":11,
			"componentType":5123,
			"count":1857,
			"type":"SCALAR"
		},
		{
			"bufferView":12,
			"componentType":5126,
			"count":82,
			"max":[
				0.6984999775886536,
				1.2192000150680542,
				2.656517267227173
			],
			"min":[
				-0.6984999775886536,
				0.4796108901500702,
				0.7696657776832581
			],
			"type":"VEC3"
		},
		{
			"bufferView":13,
			"componentType":5126,
			"count":82,
			"type":"VEC3"
		},
		{
			"bufferView":14,
			"componentType":5126,
			"count":82,
			"type":"VEC2"
		},
		{
			"bufferView":15,
			"componentType":5123,
			"count":126,
			"type":"SCALAR"
		}
	],
	"bufferViews":[
		{
			"buffer":0,
			"byteLength":100848,
			"byteOffset":0,
			"target":34962
		},
		{
			"buffer":0,
			"byteLength":100848,
			"byteOffset":100848,
			"target":34962
		},
		{
			"buffer":0,
			"byteLength":67232,
			"byteOffset":201696,
			"target":34962
		},
		{
			"buffer":0,
			"byteLength":51474,
			"byteOffset":268928,
			"target":34963
		},
		{
			"buffer":0,
			"byteLength":85368,
			"byteOffset":320404,
			"target":34962
		},
		{
			"buffer":0,
			"byteLength":85368,
			"byteOffset":405772,
			"target":34962
		},
		{
			"buffer":0,
			"byteLength":56912,
			"byteOffset":491140,
			"target":34962
		},
		{
			"buffer":0,
			"byteLength":38520,
			"byteOffset":548052,
			"target":34963
		},
		{
			"buffer":0,
			"byteLength":10776,
			"byteOffset":586572,
			"target":34962
		},
		{
			"buffer":0,
			"byteLength":10776,
			"byteOffset":597348,
			"target":34962
		},
		{
			"buffer":0,
			"byteLength":7184,
			"byteOffset":608124,
			"target":34962
		},
		{
			"buffer":0,
			"byteLength":3714,
			"byteOffset":615308,
			"target":34963
		},
		{
			"buffer":0,
			"byteLength":984,
			"byteOffset":619024,
			"target":34962
		},
		{
			"buffer":0,
			"byteLength":984,
			"byteOffset":620008,
			"target":34962
		},
		{
			"buffer":0,
			"byteLength":656,
			"byteOffset":620992,
			"target":34962
		},
		{
			"buffer":0,
			"byteLength":252,
			"byteOffset":621648,
			"target":34963
		}
	],
	"buffers":[
		{
			"byteLength":621900,
			"uri":"2019%20field%20-%20CargoShip.bin"
		}
	]
}
