<?xml version="1.0" encoding="UTF-8" standalone="no"?>
<!-- Created with Inkscape (http://www.inkscape.org/) -->

<svg
   version="1.1"
   id="svg1"
   width="249.50552"
   height="241.90224"
   viewBox="0 0 249.50552 241.90224"
   sodipodi:docname="madtownLogo.jpg"
   xmlns:inkscape="http://www.inkscape.org/namespaces/inkscape"
   xmlns:sodipodi="http://sodipodi.sourceforge.net/DTD/sodipodi-0.dtd"
   xmlns="http://www.w3.org/2000/svg"
   xmlns:svg="http://www.w3.org/2000/svg">
  <defs
     id="defs1" />
  <sodipodi:namedview
     id="namedview1"
     pagecolor="#ffffff"
     bordercolor="#000000"
     borderopacity="0.25"
     inkscape:showpageshadow="2"
     inkscape:pageopacity="0.0"
     inkscape:pagecheckerboard="0"
     inkscape:deskcolor="#d1d1d1" />
  <g
     inkscape:groupmode="layer"
     inkscape:label="Image"
     id="g1"
     transform="translate(32.694183,22.04957)">
    <ellipse
       style="fill:#ffffff;fill-opacity:1;stroke:#056bff;stroke-width:5.70563;stroke-linecap:square;stroke-linejoin:round;stroke-dasharray:none;stroke-opacity:1"
       id="path2"
       cx="92.058578"
       cy="98.901543"
       rx="121.89995"
       ry="118.0983" />
    <path
       style="display:inline;fill:#056bff;fill-opacity:1"
       d="m 86.296802,194.85541 c -6.14139,-9.50193 -5.91209,-9.91172 5.54605,-9.91172 10.999888,0 10.761948,-0.43638 5.45253,10 -3.96893,7.80145 -5.90927,7.78588 -10.99858,-0.0883 z m -61.631956,-9.1704 c -8.960156,-9.81374 -8.547891,-23.92131 0.995489,-34.06532 2.565862,-2.72735 2.579072,-2.80002 0.385958,-2.12331 -7.185777,2.21723 -14.892685,9.27412 -20.078569,18.3851 l -3.095138,5.43778 -1.253458,-2.93778 c -1.721678,-4.03518 -1.646122,-10.77815 0.169461,-15.12345 2.037779,-4.87709 2.853364,-3.65545 1.40354,2.10233 -1.373277,5.45377 -0.579744,6.97591 1.836636,3.523 6.346418,-9.06879 13.868332,-14.05264 24.606149,-16.30348 8.418502,-1.76466 8.789078,-0.35183 2.071084,7.89605 -5.045755,6.19483 -7.430536,11.78785 -7.430536,17.42682 0,5.49752 1.031024,5.56737 3.500552,0.23715 1.342699,-2.89808 4.681051,-7.00264 8.523705,-10.48004 7.37497,-6.67397 10.533114,-7.63991 4.793648,-1.46617 -6.581313,7.07928 -9.905451,14.74177 -10.662758,24.57878 l -0.655147,8.51001 z M 153.092,182.66997 c -0.51517,-9.81542 -3.30005,-16.58582 -9.91203,-24.09743 -4.93594,-5.60752 -4.25094,-5.86907 2.30166,-0.87885 4.45608,3.39359 10.05327,10.53298 12.3478,15.75 0.70405,1.60078 0.95139,1.10175 1.2391,-2.5 0.52055,-6.51667 -1.1489,-10.93923 -6.79619,-18.00391 -5.12925,-6.4166 -6.54415,-10.60009 -3.24688,-9.60016 0.9625,0.2919 3.77881,0.97477 6.25846,1.5175 8.20088,1.79495 12.40413,4.24134 19.23488,11.19512 6.98186,7.10761 8.63139,6.95256 5.78141,-0.54345 -1.37429,-3.61465 0.46478,-3.2117 1.97429,0.43258 3.37266,8.14233 -0.38509,19.95301 -4.02775,12.65929 -4.35199,-8.71402 -11.60082,-15.66462 -19.44842,-18.64827 -2.48063,-0.94314 -2.4783,-0.92991 0.57615,3.27217 8.76834,12.06281 8.41948,23.84376 -0.98022,33.10212 l -4.85912,4.78606 z m -78.42733,3.56065 c -1.73927,-2.56574 -3.758692,-36.04907 -2.067211,-34.27569 0.256405,0.26882 1.201267,6.33876 2.099692,13.48876 1.644134,13.08464 2.527016,15.25013 6.841691,16.78102 0.88253,0.31313 0.64652,1.24826 -0.82423,3.26582 -2.814687,3.86118 -3.848487,3.98764 -6.049942,0.74009 z m 28.72023,0.12507 c -2.69014,-3.41996 -2.6662,-3.58809 0.79085,-5.55463 3.13107,-1.78111 3.0192,-1.37407 5.32019,-19.35737 l 1.27952,-10 0.27751,14.8859 c 0.35829,19.21893 -2.47748,26.62487 -7.66807,20.0261 z m 72.39056,-43.87686 c -4.39813,-8.74475 -13.3013,-17.82405 -21.08416,-21.50128 -7.53463,-3.55994 -7.48767,-3.45652 -2.66584,-5.87094 5.88594,-2.94725 10.5548,-3.30175 14.82334,-1.12553 l 3.70703,1.88995 -2.39019,-2.55745 c -1.3146,-1.40659 -4.55174,-4.01026 -7.19364,-5.78593 -6.73899,-4.52939 -13.00294,-12.582432 -16.71204,-21.485284 -4.08767,-9.81152 -4.22058,-9.918727 -8.37165,-6.75255 -5.73407,4.373585 -10.61285,2.491974 -10.61285,-4.093081 0,-4.636725 -0.94407,-6.544352 -2.57067,-5.194394 -0.98654,0.818756 -3.75504,0.694357 -10.55944,-0.474477 -11.82621,-2.031463 -27.978418,-2.020322 -39.899994,0.02752 -7.011077,1.204336 -9.831267,1.33146 -11.157907,0.50296 -1.510542,-0.943349 -1.86301,-0.698968 -2.362907,1.638303 -2.175586,10.171969 -6.254122,12.551521 -12.15255,7.090196 -2.437354,-2.256733 -2.572479,-2.273654 -3.663612,-0.458778 -8.222739,13.676853 -12.239914,18.588683 -24.459777,29.907185 -5.689641,5.26996 -6.679324,7.37553 -2.423141,5.1553 5.032766,-2.62534 11.235952,-1.85194 15.746118,1.9632 l 3.996118,3.38031 -4.055286,1.09197 c -9.155974,2.46545 -18.946778,11.48981 -24.311252,22.40813 -3.753732,7.63997 -4.342587,4.28312 -0.771495,-4.39801 3.066254,-7.4539 5.875712,-11.23724 11.853487,-15.9624 4.445968,-3.51433 4.709502,-3.93006 2.491299,-3.93006 -3.992419,0 -11.668356,6.06591 -16.49748,13.03714 L 0,137.44369 0.666733,133.08623 C 2.203123,123.04507 6.950711,113.86705 18.771644,98.085858 30.172922,82.864912 30.275462,82.679213 30.275462,77.25244 c 0,-3.726703 0.938378,-7.819067 2.93798,-12.812836 C 38.072607,52.304415 39.541056,17.05072 35.774977,2.9436878 32.11002,-10.784564 55.167671,30.41696 63.336806,52.193688 c 1.80532,4.8125 3.801726,8.75 4.436459,8.75 0.634732,0 6.06989,-0.690163 12.078127,-1.533695 8.75813,-1.229606 13.10507,-1.329419 21.924068,-0.503417 17.40391,1.630078 15.55112,2.432946 18.96025,-8.216046 5.69179,-17.779273 31.03768,-62.521573 27.04792,-47.7468422 -3.34551,12.3889642 -2.34286,49.2863342 1.61103,59.2860442 1.13389,2.867676 2.31085,8.47603 2.61547,12.463009 l 0.55386,7.249053 10.01548,13.250944 c 12.67396,16.768242 15.17002,20.854222 18.22318,29.830892 3.77456,11.09765 3.35938,13.73978 -1.08381,6.89726 -4.0393,-6.22054 -8.46995,-10.44162 -13.16126,-12.53874 -6.52653,-2.9175 -6.69033,-1.49944 -0.47634,4.1239 6.69406,6.05777 13.64029,18.0801 13.02463,22.54264 -0.27454,1.99001 -0.8377,1.38636 -3.33041,-3.56986 z M 43.457644,70.443846 c 2.035228,-1.712532 3.686727,-2.32018 5.243785,-1.929383 7.104376,1.783085 6.566516,-20.791967 -0.784445,-32.924686 l -2.141522,-3.534569 -0.05905,9.927182 c -0.05619,9.446412 -0.237802,10.269384 -3.75,16.993163 -3.666502,7.019181 -4.24773,9.353612 -3.08396,12.386348 0.797865,2.079202 1.080572,2.022475 4.575193,-0.918055 z M 144.08642,68.606373 c 0.21212,-2.51211 -0.35083,-4.612126 -1.77105,-6.60663 -3.81103,-5.352108 -5.31764,-11.117894 -5.40812,-20.696902 -0.0836,-8.847277 -0.13803,-9.055848 -1.69583,-6.494245 -8.06888,13.268209 -8.7531,35.352023 -1.04284,33.658566 2.06532,-0.45362 3.25399,0.0042 5.09287,1.961611 3.0829,3.281599 4.43719,2.770082 4.82497,-1.8224 z m -43.41593,62.507167 c 0.30668,-0.49622 4.50576,-3.75802 9.33129,-7.24845 9.38022,-6.78495 14.67343,-11.89067 16.50604,-15.9214 1.10916,-2.43952 1.15074,-2.40324 1.71887,1.5 1.53404,10.5395 -0.39987,13.07656 -12.95123,16.99049 -4.675,1.45782 -9.99908,3.31006 -11.83129,4.11608 -1.83221,0.80603 -3.08037,1.0595 -2.77368,0.56328 z m -20.945028,-1.05486 c -0.5225,-0.48675 -5.45,-2.31113 -10.95,-4.05417 -12.1012,-3.83508 -19.418171,-15.28516 -12.5,-19.56082 0.55,-0.33992 1,-0.0937 1,0.54708 0,2.33 6.209614,8.91727 13.271943,14.07911 10.464617,7.64857 13.057417,9.87381 11.504787,9.87381 -0.7572,0 -1.80423,-0.39825 -2.32673,-0.88501 z"
       id="path1" />
  </g>
</svg>
